2020-10-24 16:50:49,384 - CutMovieLog.log - INFO - work path: D:\SourceTreeFloder\PythonTools\CutMovie
2020-10-24 16:50:49,384 - CutMovieLog.log - INFO - ffmpegPath: D:\SourceTreeFloder\PythonTools\BasePackege\ffmpeg\ffmpeg
2020-10-24 16:50:49,384 - CutMovieLog.log - INFO - LogPath: D:\SourceTreeFloder\PythonTools\BasePackege\ffmpeg\CutMovieLog.log
2020-10-24 16:50:49,384 - CutMovieLog.log - INFO - abs_file: D:\SourceTreeFloder\PythonTools\BasePackege\ffmpeg\ffmpegMod.py
2020-10-24 16:50:49,385 - CutMovieLog.log - INFO - abs_dir: D:\SourceTreeFloder\PythonTools\BasePackege\ffmpeg
2020-10-24 16:50:49,385 - CutMovieLog.log - INFO - D:\MyDownLoad\PornHub\·ÆÂÉ±öÅ®ÅóÓÑ\06 Asian Teen Suck Cock with Pleasure, Beautiful Blowjob POV 1080p-CD1.mp4
2020-10-24 16:50:49,507 - CutMovieLog.log - INFO - b"ffmpeg version N-92341-g66425add27 Copyright (c) 2000-2018 the FFmpeg developers\r\n  built with gcc 8.2.1 (GCC) 20181017\r\n  configuration: --enable-gpl --enable-version3 --enable-sdl2 --enable-fontconfig --enable-gnutls --enable-iconv --enable-libass --enable-libbluray --enable-libfreetype --enable-libmp3lame --enable-libopencore-amrnb --enable-libopencore-amrwb --enable-libopenjpeg --enable-libopus --enable-libshine --enable-libsnappy --enable-libsoxr --enable-libtheora --enable-libtwolame --enable-libvpx --enable-libwavpack --enable-libwebp --enable-libx264 --enable-libx265 --enable-libxml2 --enable-libzimg --enable-lzma --enable-zlib --enable-gmp --enable-libvidstab --enable-libvorbis --enable-libvo-amrwbenc --enable-libmysofa --enable-libspeex --enable-libxvid --enable-libaom --enable-libmfx --enable-amf --enable-ffnvcodec --enable-cuvid --enable-d3d11va --enable-nvenc --enable-nvdec --enable-dxva2 --enable-avisynth\r\n  libavutil      56. 23.100 / 56. 23.100\r\n  libavcodec     58. 36.100 / 58. 36.100\r\n  libavformat    58. 21.100 / 58. 21.100\r\n  libavdevice    58.  6.100 / 58.  6.100\r\n  libavfilter     7. 43.100 /  7. 43.100\r\n  libswscale      5.  4.100 /  5.  4.100\r\n  libswresample   3.  4.100 /  3.  4.100\r\n  libpostproc    55.  4.100 / 55.  4.100\r\nInput #0, mov,mp4,m4a,3gp,3g2,mj2, from 'D:\\MyDownLoad\\PornHub\\\xe8\x8f\xb2\xe5\xbe\x8b\xe5\xae\xbe\xe5\xa5\xb3\xe6\x9c\x8b\xe5\x8f\x8b\\06 Asian Teen Suck Cock with Pleasure, Beautiful Blowjob POV 1080p.mp4':\r\n  Metadata:\r\n    major_brand     : isom\r\n    minor_version   : 512\r\n    compatible_brands: isomiso2avc1mp41\r\n    encoder         : Lavf58.21.100\r\n  Duration: 00:14:39.07, start: 0.020000, bitrate: 3718 kb/s\r\n    Stream #0:0(und): Video: h264 (High) (avc1 / 0x31637661), yuv420p, 1920x1080 [SAR 1:1 DAR 16:9], 3581 kb/s, 30 fps, 30 tbr, 15360 tbn, 60 tbc (default)\r\n    Metadata:\r\n      handler_name    : VideoHandler\r\n    Stream #0:1(und): Audio: aac (LC) (mp4a / 0x6134706D), 44100 Hz, stereo, fltp, 128 kb/s (default)\r\n    Metadata:\r\n      handler_name    : SoundHandler\r\nAt least one output file must be specified\r\n"
2020-10-24 16:50:49,509 - CutMovieLog.log - INFO - matches:  ('00', '14', '39.07')
2020-10-24 16:50:49,510 - CutMovieLog.log - INFO - ('1920', '1080')
2020-10-24 16:50:49,512 - CutMovieLog.log - INFO - **************************************************
2020-10-24 16:50:49,512 - CutMovieLog.log - INFO - startPoint:  00:00:04     endPoint:00:14:35
2020-10-24 16:51:00,314 - CutMovieLog.log - INFO - 1
